# xmcd
#
# Track frame offsets: 
#        150
#        18357
#        38890
#        64275
#        86037
#        105485
#        123540
#        143430
#        164415
#        184497
#        202600
#        219682
#        240040
#        262685
#        281807
#
# Disc length: 3988 seconds
#
# Revision: 16
# Processed by: cddbd v1.5.2PL0 Copyright (c) Steve Scherf et al.
# Submitted via: ExactAudioCopy v1.3
#
DISCID=cc0f920f
DTITLE=松任谷　由実 - Neue Musik: Yumi Matsutoya Complete Best Vol.1 [CD2
DTITLE=)
DYEAR=1998
DGENRE=J-Pop
TTITLE0=リフレインが叫んでる
TTITLE1=最後の嘘
TTITLE2=真珠のピアス
TTITLE3=Dang Dang
TTITLE4=青いエアメイル
TTITLE5=Voyager ～日付のない墓標～
TTITLE6=春よ、来い
TTITLE7=Anniversary
TTITLE8=輪舞曲
TTITLE9=Downtown Boy
TTITLE10=シンデレラ・エクスプレス
TTITLE11=カンナ8号線
TTITLE12=真夏の夜の夢
TTITLE13=Groove In Retro
TTITLE14=愛は…I Can't Wait For You Anymore
EXTD=YEAR: 1998
EXTT0=
EXTT1=
EXTT2=
EXTT3=
EXTT4=
EXTT5=
EXTT6=
EXTT7=
EXTT8=
EXTT9=
EXTT10=
EXTT11=
EXTT12=
EXTT13=
EXTT14=
PLAYORDER=
